# AST/ASF file generated using VICON BodyLanguage
# -----------------------------------------------
:version 1.10
:name VICON
:units
  mass 1.0
  length 0.45
  angle deg
:documentation
   .ast/.asf automatically generated from VICON data using
   VICON BodyBuilder and BodyLanguage model FoxedUp or BRILLIANT.MOD
:root
   order TX TY TZ RX RY RZ
   axis XYZ
   position 0 0 0  
   orientation 0 0 0 
:bonedata
  begin
     id 1 
     name lhipjoint
     direction 0.535335 -0.74333 0.401095 
     length 2.04549 
     axis 0 0 0  XYZ
  end
  begin
     id 2 
     name lfemur
     direction 0.34202 -0.939693 0  
     length 6.95643  
     axis 0 0 20  XYZ
    dof rx ry rz
    limits (-160.0 20.0)
           (-70.0 70.0)
           (-60.0 70.0)
  end
  begin
     id 3 
     name ltibia
     direction 0.34192 -0.939729 0   
     length 5.55969   
     axis 0 0 20   XYZ
    dof rx
    limits (-10.0 170.0)
  end
  begin
     id 4 
     name lfoot
     direction 0.216943 -0.596046 0.773088   
     length 2.27918   
     axis -90 7.62852e-016 20   XYZ
    dof rx rz
    limits (-45.0 90.0)
           (-70.0 20.0)
  end
  begin
     id 5 
     name ltoes
     direction 1.53519e-011 -4.21748e-011 1   
     length 1.05562   
     axis -90 7.62852e-016 20   XYZ
    dof rx
    limits (-90.0 20.0)
  end
  begin
     id 6 
     name rhipjoint
     direction -0.576368 -0.719173 0.38806   
     length 2.1142  
     axis 0 0 0  XYZ 
  end
  begin
     id 7 
     name rfemur
     direction -0.34202 -0.939693 0   
     length 7.07928   
     axis 0 0 -20   XYZ
    dof rx ry rz
    limits (-160.0 20.0)
           (-70.0 70.0)
           (-70.0 60.0)
  end
  begin
     id 8 
     name rtibia
     direction -0.34202 -0.939693 0   
     length 5.79974   
     axis 0 0 -20   XYZ
    dof rx
    limits (-10.0 170.0)
 end
 begin
     id 9 
     name rfoot
     direction -0.189288 -0.520065 0.832888   
     length 2.42173  
     axis -90 -7.62852e-016 -20   XYZ
    dof rx rz
    limits (-45.0 90.0)
           (-20.0 70.0)
  end
  begin
     id 10 
     name rtoes
     direction -1.53574e-011 -4.21658e-011 1   
     length 1.14469   
     axis -90 -7.62852e-016 -20   XYZ
    dof rx
    limits (-90.0 20.0)
  end
  begin
     id 11 
     name lowerback
     direction -0.00135702 0.993803 0.111144   
     length 1.91308   
     axis 0 0 0   XYZ
    dof rx ry rz
    limits (-20.0 45.0)
           (-30.0 30.0)
           (-30.0 30.0)
  end
  begin
     id 12 
     name upperback
     direction -0.0056745 0.999813 0.0184631   
     length 1.9212   
     axis 0 0 0   XYZ
    dof rx ry rz
    limits (-20.0 45.0)
           (-30.0 30.0)
           (-30.0 30.0)
  end
  begin
     id 13 
     name thorax
     direction -0.00733434 0.999426 -0.0330788   
     length 1.94196   
     axis 0 0 0   XYZ
    dof rx ry rz
    limits (-20.0 45.0)
           (-30.0 30.0)
           (-30.0 30.0)
  end
  begin
     id 14 
     name lowerneck
     direction 0.0563074 0.996944 -0.0541571   
     length 2.34257   
     axis 0 0 0   XYZ
    dof rx ry rz
    limits (-20.0 45.0)
           (-30.0 30.0)
           (-30.0 30.0)
  end
  begin
     id 15 
     name upperneck
     direction -0.0544519 0.976166 -0.210085   
     length 2.32506   
     axis 0 0 0   XYZ
    dof rx ry rz
    limits (-20.0 45.0)
           (-30.0 30.0)
           (-30.0 30.0)
  end
  begin
     id 16
     name head
     direction -0.0226035 0.997615 -0.0652205  
     length 2.3648  
     axis 0 0 0   XYZ
    dof rx ry rz
    limits (-20.0 45.0)
           (-30.0 30.0)
           (-30.0 30.0)
  end
  begin
     id 17 
     name lclavicle
     direction 0.92109 0.381297 -0.0787716  
     length 4.0487  
     axis 0 0 0   XYZ
    dof ry rz
    limits (-20.0 10.0)
           (0.0 20.0)
  end
  begin
     id 18 
     name lhumerus
     direction 1 -4.48986e-011 3.56724e-027   
     length 4.94991   
     axis 180 -30 -90   XYZ
    dof rx ry rz
    limits (-60.0 90.0)
           (-90.0 90.0)
           (-90.0 90.0)
  end
  begin
     id 19
     name lradius
     direction 1 -4.48981e-011 8.62147e-027   
     length 2.7606   
     axis 180 -30 -90   XYZ
    dof rx
    limits (-10.0 170.0)
  end
  begin
     id 20
     name lwrist
     direction 1 -4.48989e-011 1.59799e-026   
     length 1.3803   
     axis -1.17785e-014 90 90   XYZ
    dof ry
    limits (-180.0 0.0)
 end
  begin
     id 21 
     name lhand
     direction 1 -4.48896e-011 3.19599e-026   
     length 0.843936   
     axis -2.03931e-014 90 90   XYZ
    dof rx rz
    limits (-90.0 90.0)
           (-45.0 45.0)
  end
  begin
     id 22 
     name lfingers
     direction 1 -4.48887e-011 6.39197e-026   
     length 0.680403   
     axis -4.07862e-014 90 90   XYZ
    dof rx
    limits (0.0 90.0)
  end
  begin
     id 23
     name lthumb
     direction 0.707107 -6.348e-011 0.707107   
     length 0.976926   
     axis -90 45 2.85299e-015   XYZ
    dof rx rz
    limits (-45.0 45.0)
           (-45.0 45.0)
  end
  begin
     id 24 
     name rclavicle
     direction -0.951104 0.307692 -0.026953   
     length 4.21801  
     axis 0 0 0   XYZ 
    dof ry rz
    limits (-10.0 20.0)
           (-20.0 0.0)
  end
  begin
     id 25 
     name rhumerus
     direction -1 -4.4896e-011 -1.8171e-018  
     length 4.32982   
     axis 180 30 90   XYZ
    dof rx ry rz
    limits (-90.0 60.0)
           (-90.0 90.0)
           (-90.0 90.0)
  end
  begin
     id 26 
     name rradius
     direction -1 -4.48959e-011 8.25165e-027   
     length 3.20057   
     axis 180 30 90   XYZ
    dof rx
    limits (-10.0 170.0)
  end
  begin
     id 27 
     name rwrist
     direction -1 -4.48997e-011 1.59799e-026   
     length 1.60029   
     axis -1.17785e-014 -90 -90   XYZ
    dof ry
    limits (-180.0 0.0)
  end
  begin
     id 28
     name rhand
     direction -1 -4.49023e-011 3.19599e-026   
     length 0.960433   
     axis -2.03931e-014 -90 -90   XYZ
    dof rx rz
    limits (-90.0 90.0)
           (-45.0 45.0)
  end
  begin
     id 29
     name rfingers
     direction -1 -4.48802e-011 6.39197e-026   
     length 0.774326   
     axis -4.07862e-014 -90 -90   XYZ
    dof rx
    limits (0.0 90.0)
  end
  begin
     id 30
     name rthumb
     direction -0.707107 -6.34876e-011 0.707107   
     length 1.11178   
     axis -90 -45 -2.85299e-015   XYZ
    dof rx rz
    limits (-45.0 45.0)
           (-45.0 45.0)
  end
:hierarchy
  begin
    root lhipjoint rhipjoint lowerback
    lhipjoint lfemur
    lfemur ltibia
    ltibia lfoot
    lfoot ltoes
    rhipjoint rfemur
    rfemur rtibia
    rtibia rfoot
    rfoot rtoes
    lowerback upperback
    upperback thorax
    thorax lowerneck lclavicle rclavicle
    lowerneck upperneck
    upperneck head
    lclavicle lhumerus
    lhumerus lradius
    lradius lwrist
    lwrist lhand lthumb
    lhand lfingers
    rclavicle rhumerus
    rhumerus rradius
    rradius rwrist
    rwrist rhand rthumb
    rhand rfingers
end

#!OML:ASF C:\KaitlinTest1\Natural Motions\Nikki\Session 2\Nikki.ASF
:FULLY-SPECIFIED
:DEGREES
571
root -12.3085 16.5207 4.04874 32.8737 92.1449 26.735
lowerback -9.60825 -1.97591 0.733831
upperback -4.42867 -2.5243 -0.432127
thorax 0.735862 -1.20931 -1.10876
lowerneck -6.23295 -11.6135 -9.84366
upperneck 5.91699 40.8705 5.31045
head 162.133 64.8813 -42.0679
rclavicle 5.49143e-015 -1.39149e-015
rhumerus -38.5764 -22.5141 -84.0132
rradius 16.081
rwrist 22.2248
rhand -36.0439 1.32142
rfingers 7.12502
rthumb -9.15214 -28.46
lclavicle 5.49143e-015 -1.39149e-015
lhumerus -38.6583 19.0731 82.5999
lradius 18.2468
lwrist -34.306
lhand -34.3922 3.22297
lfingers 7.12502
lthumb -7.55811 33.0679
rfemur -6.59787 -20.6045 20.6934
rtibia 16.6094
rfoot -12.655 8.47883
rtoes 9.54166e-015
lfemur -10.4393 16.0349 -17.4386
ltibia 20.2573
lfoot -8.10267 -19.7945
ltoes 1.27222e-014
572
root -12.3092 16.5202 4.04731 32.3703 92.1312 26.2236
lowerback -9.64348 -1.9759 0.710606
upperback -4.39906 -2.52296 -0.454567
thorax 0.785848 -1.20848 -1.12073
lowerneck -6.26979 -11.6172 -9.79504
upperneck 5.90622 40.8556 5.32381
head 162.09 64.9657 -42.1339
rclavicle -9.41742e-015 -3.57812e-015
rhumerus -38.4982 -22.5173 -84.1102
rradius 16.0723
rwrist 22.2279
rhand -36.0051 1.26955
rfingers 7.12502
rthumb -9.11471 -28.5135
lclavicle -9.41742e-015 -3.57812e-015
lhumerus -38.6289 18.8977 82.7136
lradius 18.3126
lwrist -34.0574
lhand -34.2827 3.21775
lfingers 7.12502
lthumb -7.45242 33.0665
rfemur -6.59817 -20.5513 20.6699
rtibia 16.5868
rfoot -12.6569 8.43274
rtoes -2.62396e-014
lfemur -10.4519 16.0134 -17.4729
ltibia 20.2717
lfoot -8.11979 -19.7747
ltoes 2.06736e-014
573
root -12.308 16.5206 4.04638 33.1619 92.1188 27.0492
lowerback -9.67667 -1.96823 0.725259
upperback -4.34429 -2.51643 -0.453582
thorax 0.860304 -1.2056 -1.12973
lowerneck -6.33441 -11.6386 -9.75086
upperneck 5.89171 40.838 5.30946
head 161.875 65.0517 -42.3213
rclavicle 1.71452e-015 1.59028e-015
rhumerus -38.4067 -22.5592 -84.1762
rradius 16.0638
rwrist 22.2438
rhand -35.9913 1.31734
rfingers 7.12502
rthumb -9.10137 -28.4663
lclavicle 1.71452e-015 1.59028e-015
lhumerus -38.6182 19.1303 82.5951
lradius 18.2748
lwrist -34.4984
lhand -34.0735 3.26161
lfingers 7.12502
lthumb -7.25048 33.1174
rfemur -6.54094 -20.4871 20.6695
rtibia 16.5659
rfoot -12.6282 8.39612
rtoes 2.70347e-014
lfemur -10.4109 16.0318 -17.4444
ltibia 20.2849
lfoot -8.12264 -19.7631
ltoes 1.43125e-014
574
root -12.31 16.5198 4.04475 34.2864 92.1602 28.2211
lowerback -9.60095 -1.96628 0.782834
upperback -4.3376 -2.51995 -0.439931
thorax 0.823769 -1.20866 -1.14558
lowerneck -6.30702 -11.6428 -9.74294
upperneck 5.88188 40.7623 5.29566
head 161.731 65.1909 -42.4348
rclavicle 8.77137e-015 1.98785e-016
rhumerus -38.3554 -22.5746 -84.2206
rradius 16.0586
rwrist 22.1688
rhand -35.9549 1.34126
rfingers 7.12502
rthumb -9.06624 -28.4439
lclavicle 8.77137e-015 1.98785e-016
lhumerus -38.6086 19.0694 82.6455
lradius 18.1989
lwrist -34.4455
lhand -34.1446 3.17771
lfingers 7.12502
lthumb -7.31912 33.0311
rfemur -6.47676 -20.446 20.7145
rtibia 16.5411
rfoot -12.5824 8.34315
rtoes 2.38542e-015
lfemur -10.3813 16.0591 -17.3699
ltibia 20.3013
lfoot -8.11177 -19.8061
ltoes -2.8625e-014
